<svg width="650" height="483" viewBox="0 0 650 483" fill="none" xmlns="http://www.w3.org/2000/svg">
<g filter="url(#filter0_d_0_489)">
<rect x="-7" y="36" width="538" height="368" rx="12" fill="#535353"/>
<rect x="-4" y="39" width="532" height="362" rx="10" fill="#1D1D25"/>
<rect x="10" y="52" width="506" height="335.872" rx="3" fill="url(#paint0_linear_0_489)"/>
<mask id="mask0_0_489" style="mask-type:alpha" maskUnits="userSpaceOnUse" x="10" y="52" width="506" height="336">
<rect x="10" y="52" width="506" height="335.872" rx="3" fill="white"/>
</mask>
<g mask="url(#mask0_0_489)">
<rect x="9.67529" y="112.293" width="506" height="275.838" rx="3" fill="#F9F6F6"/>
<rect x="81.4753" y="89.4595" width="106.646" height="256.541" rx="3" fill="white"/>
<rect x="206.274" y="89.4595" width="238.251" height="256.541" rx="3" fill="white"/>
<rect x="216.484" y="103.081" width="217.83" height="60.1622" rx="3" fill="#E7E7E7"/>
<rect x="216.484" y="175.73" width="64.6682" height="60.1622" rx="3" fill="#E7E7E7"/>
<rect x="297.036" y="175.73" width="137.278" height="60.1622" rx="3" fill="#E7E7E7"/>
</g>
<rect opacity="0.0979818" x="260" y="20" width="13.6" height="3" rx="1.5" fill="#4A5166"/>
<rect opacity="0.0979818" x="276.8" y="20" width="3.2" height="3" rx="1.5" fill="#4A5166"/>
<path d="M-89 403C-89 401.343 -87.6569 400 -86 400H606.899C608.556 400 609.899 401.343 609.899 403V417.105H-89V403Z" fill="#52526F"/>
<mask id="mask1_0_489" style="mask-type:alpha" maskUnits="userSpaceOnUse" x="-89" y="400" width="699" height="18">
<path d="M-89 403C-89 401.343 -87.6569 400 -86 400H606.899C608.556 400 609.899 401.343 609.899 403V417.105H-89V403Z" fill="white"/>
</mask>
<g mask="url(#mask1_0_489)">
<rect x="203.371" y="358.092" width="114.156" height="52.1711" rx="10" fill="#2F2F47"/>
</g>
<path d="M-89 417H610V417C610 420.314 607.314 423 604 423H-83C-86.3137 423 -89 420.314 -89 417V417Z" fill="#393A56"/>
</g>
<defs>
<filter id="filter0_d_0_489" x="-129" y="0" width="779" height="483" filterUnits="userSpaceOnUse" color-interpolation-filters="sRGB">
<feFlood flood-opacity="0" result="BackgroundImageFix"/>
<feColorMatrix in="SourceAlpha" type="matrix" values="0 0 0 0 0 0 0 0 0 0 0 0 0 0 0 0 0 0 127 0" result="hardAlpha"/>
<feOffset dy="20"/>
<feGaussianBlur stdDeviation="20"/>
<feColorMatrix type="matrix" values="0 0 0 0 0.421822 0 0 0 0 0.554338 0 0 0 0 0.89371 0 0 0 0.243444 0"/>
<feBlend mode="normal" in2="BackgroundImageFix" result="effect1_dropShadow_0_489"/>
<feBlend mode="normal" in="SourceGraphic" in2="effect1_dropShadow_0_489" result="shape"/>
</filter>
<linearGradient id="paint0_linear_0_489" x1="-243" y1="219.936" x2="66.5165" y2="686.23" gradientUnits="userSpaceOnUse">
<stop stop-color="#FF8F71"/>
<stop offset="1" stop-color="#FF3E55"/>
</linearGradient>
</defs>
</svg>
