<svg width="650" height="882" viewBox="0 0 650 882" fill="none" xmlns="http://www.w3.org/2000/svg">
<g id="Group 12">
<rect id="Rectangle Copy" opacity="0.08" width="600" height="602" rx="300" transform="matrix(1 0 0 -1 185 746)" fill="#2D2E40"/>
<rect id="Rectangle Copy 4" opacity="0.5" x="0.5" y="-0.5" width="679" height="681" rx="339.5" transform="matrix(1 0 0 -1 145 781)" stroke="#2D2E40"/>
<rect id="Rectangle Copy 9" opacity="0.25" x="0.5" y="-0.5" width="879" height="881" rx="439.5" transform="matrix(1 0 0 -1 45 881)" stroke="#2D2E40"/>
<g id="Group 11">
<g id="Group 14">
<g id="Group 13">
<g id="Mask" filter="url(#filter0_d_0_241)">
<rect x="40" y="242" width="642" height="427" rx="15" fill="url(#paint0_linear_0_241)"/>
</g>
<mask id="mask0_0_241" style="mask-type:alpha" maskUnits="userSpaceOnUse" x="40" y="242" width="642" height="427">
<rect id="Mask_2" x="40" y="242" width="642" height="427" rx="15" fill="white"/>
</mask>
<g mask="url(#mask0_0_241)">
<path id="Mask Copy" d="M40 370C40 368.343 41.3431 367 43 367H679C680.657 367 682 368.343 682 370V666C682 667.657 680.657 669 679 669H43C41.3431 669 40 667.657 40 666V370Z" fill="#2D2E40"/>
<rect id="Mask Copy 2" x="130.523" y="289.71" width="135.785" height="137.165" rx="3" fill="white"/>
<ellipse id="Oval" cx="198.416" cy="358.888" rx="39.3061" ry="39.3603" fill="#2D2E40"/>
<rect id="Mask Copy 3" x="288.939" y="289.71" width="302.538" height="325.617" rx="3" fill="white"/>
</g>
</g>
<path id="Path 2" d="M249 526C249 526 319.687 415.949 353.557 407.062C387.427 398.176 377.322 490.202 426.092 479.535C474.862 468.869 480.808 375.561 517.695 371.164C554.582 366.768 574.097 452.111 590.21 459.974C606.323 467.837 630 425.968 630 425.968" stroke="url(#paint1_linear_0_241)" stroke-width="8" stroke-linecap="round"/>
</g>
</g>
</g>
<defs>
<filter id="filter0_d_0_241" x="0" y="222" width="722" height="507" filterUnits="userSpaceOnUse" color-interpolation-filters="sRGB">
<feFlood flood-opacity="0" result="BackgroundImageFix"/>
<feColorMatrix in="SourceAlpha" type="matrix" values="0 0 0 0 0 0 0 0 0 0 0 0 0 0 0 0 0 0 127 0" result="hardAlpha"/>
<feOffset dy="20"/>
<feGaussianBlur stdDeviation="20"/>
<feColorMatrix type="matrix" values="0 0 0 0 0.421822 0 0 0 0 0.554338 0 0 0 0 0.89371 0 0 0 0.243444 0"/>
<feBlend mode="normal" in2="BackgroundImageFix" result="effect1_dropShadow_0_241"/>
<feBlend mode="normal" in="SourceGraphic" in2="effect1_dropShadow_0_241" result="shape"/>
</filter>
<linearGradient id="paint0_linear_0_241" x1="-281" y1="455.5" x2="112.798" y2="1047.58" gradientUnits="userSpaceOnUse">
<stop stop-color="#FF8F71"/>
<stop offset="1" stop-color="#FF3E55"/>
</linearGradient>
<linearGradient id="paint1_linear_0_241" x1="58.5" y1="448.5" x2="166.707" y2="714.479" gradientUnits="userSpaceOnUse">
<stop stop-color="#FF8F71"/>
<stop offset="1" stop-color="#FF3E55"/>
</linearGradient>
</defs>
</svg>
